<svg width="219" height="70" viewBox="0 0 219 70" fill="none" xmlns="http://www.w3.org/2000/svg">
<rect width="219" height="70" fill="#1B1B1B"/>
<path d="M60.68 14.68C60.5733 15.6933 60.4933 16.68 60.44 17.64C60.4133 18.5733 60.4 19.2933 60.4 19.8C60.4 20.44 60.4133 21.04 60.44 21.6C60.4667 22.16 60.4933 22.6533 60.52 23.08H59.6C59.4133 21.2133 59.16 19.7467 58.84 18.68C58.52 17.5867 57.96 16.8 57.16 16.32C56.36 15.84 55.12 15.6 53.44 15.6H51.28V38.36C51.28 39.4267 51.3733 40.2267 51.56 40.76C51.7733 41.2933 52.1733 41.6533 52.76 41.84C53.3467 42.0267 54.2 42.1467 55.32 42.2V43C54.6267 42.9467 53.7467 42.92 52.68 42.92C51.6133 42.8933 50.5333 42.88 49.44 42.88C48.24 42.88 47.1067 42.8933 46.04 42.92C45 42.92 44.16 42.9467 43.52 43V42.2C44.64 42.1467 45.4933 42.0267 46.08 41.84C46.6667 41.6533 47.0533 41.2933 47.24 40.76C47.4533 40.2267 47.56 39.4267 47.56 38.36V15.6H45.4C43.7467 15.6 42.5067 15.84 41.68 16.32C40.88 16.8 40.32 17.5867 40 18.68C39.68 19.7467 39.4267 21.2133 39.24 23.08H38.32C38.3733 22.6533 38.4 22.16 38.4 21.6C38.4267 21.04 38.44 20.44 38.44 19.8C38.44 19.2933 38.4133 18.5733 38.36 17.64C38.3333 16.68 38.2667 15.6933 38.16 14.68C39.28 14.7067 40.4933 14.7333 41.8 14.76C43.1333 14.7867 44.4667 14.8 45.8 14.8C47.1333 14.8 48.3467 14.8 49.44 14.8C50.5333 14.8 51.7333 14.8 53.04 14.8C54.3733 14.8 55.7067 14.7867 57.04 14.76C58.3733 14.7333 59.5867 14.7067 60.68 14.68ZM71.005 21.84C73.3517 21.84 75.1783 22.56 76.485 24C77.8183 25.4133 78.485 27.6267 78.485 30.64H64.365L64.325 29.88H74.645C74.6983 28.5733 74.5917 27.3733 74.325 26.28C74.0583 25.16 73.6317 24.2667 73.045 23.6C72.485 22.9333 71.7517 22.6 70.845 22.6C69.6183 22.6 68.525 23.2133 67.565 24.44C66.6317 25.6667 66.0717 27.6133 65.885 30.28L66.005 30.44C65.9517 30.84 65.9117 31.28 65.885 31.76C65.8583 32.24 65.845 32.72 65.845 33.2C65.845 35.0133 66.1383 36.5733 66.725 37.88C67.3117 39.1867 68.0717 40.1867 69.005 40.88C69.965 41.5467 70.9517 41.88 71.965 41.88C73.165 41.88 74.2717 41.5867 75.285 41C76.2983 40.4133 77.1517 39.3733 77.845 37.88L78.645 38.2C78.3517 39.08 77.8717 39.9333 77.205 40.76C76.5383 41.5867 75.6983 42.2667 74.685 42.8C73.6717 43.3067 72.4983 43.56 71.165 43.56C69.245 43.56 67.5917 43.12 66.205 42.24C64.845 41.36 63.7917 40.1467 63.045 38.6C62.325 37.0267 61.965 35.2267 61.965 33.2C61.965 30.8533 62.3383 28.84 63.085 27.16C63.8317 25.4533 64.885 24.1467 66.245 23.24C67.605 22.3067 69.1917 21.84 71.005 21.84ZM86.0794 12.4C86.7727 12.4 87.3727 12.6533 87.8794 13.16C88.386 13.6667 88.6394 14.2667 88.6394 14.96C88.6394 15.6533 88.386 16.2533 87.8794 16.76C87.3727 17.2667 86.7727 17.52 86.0794 17.52C85.386 17.52 84.786 17.2667 84.2794 16.76C83.7727 16.2533 83.5194 15.6533 83.5194 14.96C83.5194 14.2667 83.7727 13.6667 84.2794 13.16C84.786 12.6533 85.386 12.4 86.0794 12.4ZM88.1594 21.96V39.28C88.1594 40.4 88.386 41.16 88.8394 41.56C89.3194 41.96 90.106 42.16 91.1994 42.16V43C90.746 42.9733 90.0527 42.9467 89.1194 42.92C88.2127 42.8667 87.2927 42.84 86.3594 42.84C85.4527 42.84 84.5327 42.8667 83.5994 42.92C82.666 42.9467 81.9727 42.9733 81.5194 43V42.16C82.6127 42.16 83.386 41.96 83.8394 41.56C84.3194 41.16 84.5594 40.4 84.5594 39.28V26.76C84.5594 25.56 84.346 24.68 83.9194 24.12C83.4927 23.5333 82.6927 23.24 81.5194 23.24V22.4C82.3727 22.48 83.1994 22.52 83.9994 22.52C84.7727 22.52 85.506 22.48 86.1994 22.4C86.9194 22.2933 87.5727 22.1467 88.1594 21.96ZM106.678 21.84C107.691 21.84 108.531 21.9733 109.198 22.24C109.891 22.5067 110.465 22.88 110.918 23.36C111.425 23.8933 111.785 24.56 111.998 25.36C112.211 26.16 112.318 27.24 112.318 28.6V39.28C112.318 40.4 112.545 41.16 112.998 41.56C113.478 41.96 114.265 42.16 115.358 42.16V43C114.905 42.9733 114.211 42.9467 113.278 42.92C112.345 42.8667 111.438 42.84 110.558 42.84C109.678 42.84 108.811 42.8667 107.958 42.92C107.131 42.9467 106.505 42.9733 106.078 43V42.16C107.038 42.16 107.718 41.96 108.118 41.56C108.518 41.16 108.718 40.4 108.718 39.28V27.72C108.718 26.8933 108.651 26.1333 108.518 25.44C108.385 24.7467 108.078 24.1867 107.598 23.76C107.145 23.3333 106.438 23.12 105.478 23.12C103.798 23.12 102.438 23.8267 101.398 25.24C100.385 26.6267 99.8781 28.3467 99.8781 30.4V39.28C99.8781 40.4 100.078 41.16 100.478 41.56C100.878 41.96 101.558 42.16 102.518 42.16V43C102.091 42.9733 101.451 42.9467 100.598 42.92C99.7715 42.8667 98.9181 42.84 98.0381 42.84C97.1581 42.84 96.2515 42.8667 95.3181 42.92C94.3848 42.9467 93.6915 42.9733 93.2381 43V42.16C94.3315 42.16 95.1048 41.96 95.5581 41.56C96.0381 41.16 96.2781 40.4 96.2781 39.28V26.76C96.2781 25.56 96.0648 24.68 95.6381 24.12C95.2115 23.5333 94.4115 23.24 93.2381 23.24V22.4C94.0915 22.48 94.9181 22.52 95.7181 22.52C96.4915 22.52 97.2248 22.48 97.9181 22.4C98.6381 22.2933 99.2915 22.1467 99.8781 21.96V26.68C100.571 24.8667 101.531 23.6133 102.758 22.92C104.011 22.2 105.318 21.84 106.678 21.84ZM122.465 43.28C120.732 43.28 119.465 42.8533 118.665 42C117.892 41.12 117.505 39.96 117.505 38.52C117.505 37.4 117.772 36.48 118.305 35.76C118.865 35.0133 119.572 34.4133 120.425 33.96C121.279 33.48 122.172 33.08 123.105 32.76C124.065 32.4133 124.972 32.08 125.825 31.76C126.679 31.44 127.372 31.08 127.905 30.68C128.465 30.28 128.745 29.7733 128.745 29.16V26.68C128.745 25.56 128.572 24.7067 128.225 24.12C127.905 23.5333 127.465 23.1467 126.905 22.96C126.345 22.7467 125.719 22.64 125.025 22.64C124.359 22.64 123.639 22.7333 122.865 22.92C122.119 23.1067 121.519 23.4933 121.065 24.08C121.572 24.1867 122.012 24.4533 122.385 24.88C122.759 25.3067 122.945 25.8533 122.945 26.52C122.945 27.1867 122.732 27.72 122.305 28.12C121.879 28.4933 121.332 28.68 120.665 28.68C119.892 28.68 119.319 28.44 118.945 27.96C118.599 27.4533 118.425 26.8933 118.425 26.28C118.425 25.5867 118.599 25.0267 118.945 24.6C119.292 24.1733 119.732 23.7733 120.265 23.4C120.879 22.9733 121.665 22.6133 122.625 22.32C123.612 22 124.719 21.84 125.945 21.84C127.039 21.84 127.972 21.9733 128.745 22.24C129.519 22.48 130.159 22.84 130.665 23.32C131.359 23.96 131.812 24.7467 132.025 25.68C132.239 26.5867 132.345 27.68 132.345 28.96V40.08C132.345 40.72 132.439 41.2 132.625 41.52C132.812 41.8133 133.132 41.96 133.585 41.96C133.959 41.96 134.279 41.88 134.545 41.72C134.839 41.56 135.119 41.36 135.385 41.12L135.825 41.8C135.265 42.2267 134.732 42.5867 134.225 42.88C133.719 43.1467 133.039 43.28 132.185 43.28C130.799 43.28 129.879 42.92 129.425 42.2C128.972 41.48 128.745 40.6533 128.745 39.72C127.892 41.1333 126.919 42.08 125.825 42.56C124.759 43.04 123.639 43.28 122.465 43.28ZM124.225 41.68C125.025 41.68 125.812 41.4533 126.585 41C127.359 40.52 128.079 39.7333 128.745 38.64V30.8C128.345 31.3867 127.719 31.8533 126.865 32.2C126.039 32.5467 125.172 32.9333 124.265 33.36C123.385 33.76 122.625 34.32 121.985 35.04C121.345 35.7333 121.025 36.7333 121.025 38.04C121.025 39.2667 121.332 40.1867 121.945 40.8C122.559 41.3867 123.319 41.68 124.225 41.68ZM150.467 21.84C151.481 21.84 152.321 21.9733 152.987 22.24C153.681 22.5067 154.254 22.88 154.707 23.36C155.214 23.8933 155.574 24.56 155.787 25.36C156.001 26.16 156.107 27.24 156.107 28.6V39.28C156.107 40.4 156.334 41.16 156.787 41.56C157.267 41.96 158.054 42.16 159.147 42.16V43C158.694 42.9733 158.001 42.9467 157.067 42.92C156.134 42.8667 155.227 42.84 154.347 42.84C153.467 42.84 152.601 42.8667 151.747 42.92C150.921 42.9467 150.294 42.9733 149.867 43V42.16C150.827 42.16 151.507 41.96 151.907 41.56C152.307 41.16 152.507 40.4 152.507 39.28V27.72C152.507 26.8933 152.441 26.1333 152.307 25.44C152.174 24.7467 151.867 24.1867 151.387 23.76C150.934 23.3333 150.227 23.12 149.267 23.12C147.587 23.12 146.227 23.8267 145.187 25.24C144.174 26.6267 143.667 28.3467 143.667 30.4V39.28C143.667 40.4 143.867 41.16 144.267 41.56C144.667 41.96 145.347 42.16 146.307 42.16V43C145.881 42.9733 145.241 42.9467 144.387 42.92C143.561 42.8667 142.707 42.84 141.827 42.84C140.947 42.84 140.041 42.8667 139.107 42.92C138.174 42.9467 137.481 42.9733 137.027 43V42.16C138.121 42.16 138.894 41.96 139.347 41.56C139.827 41.16 140.067 40.4 140.067 39.28V26.76C140.067 25.56 139.854 24.68 139.427 24.12C139.001 23.5333 138.201 23.24 137.027 23.24V22.4C137.881 22.48 138.707 22.52 139.507 22.52C140.281 22.52 141.014 22.48 141.707 22.4C142.427 22.2933 143.081 22.1467 143.667 21.96V26.68C144.361 24.8667 145.321 23.6133 146.547 22.92C147.801 22.2 149.107 21.84 150.467 21.84ZM170.614 21.84C172.961 21.84 174.788 22.56 176.094 24C177.428 25.4133 178.094 27.6267 178.094 30.64H163.974L163.934 29.88H174.254C174.308 28.5733 174.201 27.3733 173.934 26.28C173.668 25.16 173.241 24.2667 172.654 23.6C172.094 22.9333 171.361 22.6 170.454 22.6C169.228 22.6 168.134 23.2133 167.174 24.44C166.241 25.6667 165.681 27.6133 165.494 30.28L165.614 30.44C165.561 30.84 165.521 31.28 165.494 31.76C165.468 32.24 165.454 32.72 165.454 33.2C165.454 35.0133 165.748 36.5733 166.334 37.88C166.921 39.1867 167.681 40.1867 168.614 40.88C169.574 41.5467 170.561 41.88 171.574 41.88C172.774 41.88 173.881 41.5867 174.894 41C175.908 40.4133 176.761 39.3733 177.454 37.88L178.254 38.2C177.961 39.08 177.481 39.9333 176.814 40.76C176.148 41.5867 175.308 42.2667 174.294 42.8C173.281 43.3067 172.108 43.56 170.774 43.56C168.854 43.56 167.201 43.12 165.814 42.24C164.454 41.36 163.401 40.1467 162.654 38.6C161.934 37.0267 161.574 35.2267 161.574 33.2C161.574 30.8533 161.948 28.84 162.694 27.16C163.441 25.4533 164.494 24.1467 165.854 23.24C167.214 22.3067 168.801 21.84 170.614 21.84Z" fill="#DBDBDB"/>
</svg>
