<svg width="219" height="70" viewBox="0 0 219 70" fill="none" xmlns="http://www.w3.org/2000/svg">
<rect width="219" height="70" fill="#DBDBDB"/>
<path d="M51.88 14.68V15.48C50.9733 15.5067 50.28 15.6133 49.8 15.8C49.3467 15.96 49.04 16.28 48.88 16.76C48.72 17.2133 48.64 17.9333 48.64 18.92V38.76C48.64 39.72 48.72 40.44 48.88 40.92C49.04 41.4 49.3467 41.72 49.8 41.88C50.28 42.0133 50.9733 42.08 51.88 42.08H54.8C56.48 42.08 57.7467 41.84 58.6 41.36C59.48 40.88 60.1067 40.0933 60.48 39C60.88 37.9067 61.1733 36.44 61.36 34.6H62.28C62.2 35.4267 62.16 36.52 62.16 37.88C62.16 38.3867 62.1733 39.12 62.2 40.08C62.2533 41.0133 62.3333 41.9867 62.44 43C61.08 42.9467 59.5467 42.92 57.84 42.92C56.1333 42.8933 54.6133 42.88 53.28 42.88C52.48 42.88 51.4133 42.88 50.08 42.88C48.7733 42.88 47.3733 42.8933 45.88 42.92C44.3867 42.92 42.9867 42.9467 41.68 43V42.2C42.5867 42.1467 43.2667 42.04 43.72 41.88C44.2 41.72 44.52 41.4 44.68 40.92C44.84 40.44 44.92 39.72 44.92 38.76V18.92C44.92 17.9333 44.84 17.2133 44.68 16.76C44.52 16.28 44.2 15.96 43.72 15.8C43.2667 15.6133 42.5867 15.5067 41.68 15.48V14.68C42.24 14.7067 42.9733 14.7333 43.88 14.76C44.7867 14.7867 45.76 14.8 46.8 14.8C47.7333 14.8 48.6533 14.7867 49.56 14.76C50.4933 14.7333 51.2667 14.7067 51.88 14.68ZM74.3956 21.84C76.7423 21.84 78.569 22.56 79.8756 24C81.209 25.4133 81.8756 27.6267 81.8756 30.64H67.7556L67.7156 29.88H78.0356C78.089 28.5733 77.9823 27.3733 77.7156 26.28C77.449 25.16 77.0223 24.2667 76.4356 23.6C75.8756 22.9333 75.1423 22.6 74.2356 22.6C73.009 22.6 71.9156 23.2133 70.9556 24.44C70.0223 25.6667 69.4623 27.6133 69.2756 30.28L69.3956 30.44C69.3423 30.84 69.3023 31.28 69.2756 31.76C69.249 32.24 69.2356 32.72 69.2356 33.2C69.2356 35.0133 69.529 36.5733 70.1156 37.88C70.7023 39.1867 71.4623 40.1867 72.3956 40.88C73.3556 41.5467 74.3423 41.88 75.3556 41.88C76.5556 41.88 77.6623 41.5867 78.6756 41C79.689 40.4133 80.5423 39.3733 81.2356 37.88L82.0356 38.2C81.7423 39.08 81.2623 39.9333 80.5956 40.76C79.929 41.5867 79.089 42.2667 78.0756 42.8C77.0623 43.3067 75.889 43.56 74.5556 43.56C72.6356 43.56 70.9823 43.12 69.5956 42.24C68.2356 41.36 67.1823 40.1467 66.4356 38.6C65.7156 37.0267 65.3556 35.2267 65.3556 33.2C65.3556 30.8533 65.729 28.84 66.4756 27.16C67.2223 25.4533 68.2756 24.1467 69.6356 23.24C70.9956 22.3067 72.5823 21.84 74.3956 21.84ZM94.63 21.84C96.9767 21.84 98.8033 22.56 100.11 24C101.443 25.4133 102.11 27.6267 102.11 30.64H87.99L87.95 29.88H98.27C98.3233 28.5733 98.2167 27.3733 97.95 26.28C97.6833 25.16 97.2567 24.2667 96.67 23.6C96.11 22.9333 95.3767 22.6 94.47 22.6C93.2433 22.6 92.15 23.2133 91.19 24.44C90.2567 25.6667 89.6967 27.6133 89.51 30.28L89.63 30.44C89.5767 30.84 89.5367 31.28 89.51 31.76C89.4833 32.24 89.47 32.72 89.47 33.2C89.47 35.0133 89.7633 36.5733 90.35 37.88C90.9367 39.1867 91.6967 40.1867 92.63 40.88C93.59 41.5467 94.5767 41.88 95.59 41.88C96.79 41.88 97.8967 41.5867 98.91 41C99.9233 40.4133 100.777 39.3733 101.47 37.88L102.27 38.2C101.977 39.08 101.497 39.9333 100.83 40.76C100.163 41.5867 99.3233 42.2667 98.31 42.8C97.2967 43.3067 96.1233 43.56 94.79 43.56C92.87 43.56 91.2167 43.12 89.83 42.24C88.47 41.36 87.4167 40.1467 86.67 38.6C85.95 37.0267 85.59 35.2267 85.59 33.2C85.59 30.8533 85.9633 28.84 86.71 27.16C87.4567 25.4533 88.51 24.1467 89.87 23.24C91.23 22.3067 92.8167 21.84 94.63 21.84ZM112.548 22.4V23.24C111.881 23.24 111.295 23.2933 110.788 23.4C110.281 23.48 109.948 23.7467 109.788 24.2C109.628 24.6533 109.748 25.4533 110.148 26.6L114.308 38.52L114.028 38.48L119.908 22.24L120.708 22.56L113.388 43.2C113.281 43.2 113.175 43.2 113.068 43.2C112.961 43.2 112.841 43.2 112.708 43.2L106.148 25.48C105.721 24.4133 105.295 23.7733 104.868 23.56C104.468 23.3467 104.121 23.24 103.828 23.24V22.4C104.361 22.48 104.908 22.5467 105.468 22.6C106.055 22.6267 106.681 22.64 107.348 22.64C108.175 22.64 109.041 22.6133 109.948 22.56C110.881 22.5067 111.748 22.4533 112.548 22.4ZM134.508 22.4V23.2C134.001 23.2533 133.521 23.48 133.068 23.88C132.641 24.2533 132.255 24.96 131.908 26L126.108 43.2C126.001 43.2 125.895 43.2 125.788 43.2C125.681 43.2 125.561 43.2 125.428 43.2L118.988 26.84L119.908 22.24C120.068 22.24 120.215 22.24 120.348 22.24C120.508 22.24 120.668 22.24 120.828 22.24L127.068 38.76L126.748 39L130.708 26.96C131.161 25.6267 131.188 24.6933 130.788 24.16C130.415 23.6267 129.521 23.3067 128.108 23.2V22.4C128.588 22.4267 129.001 22.4533 129.348 22.48C129.695 22.48 130.028 22.4933 130.348 22.52C130.695 22.52 131.068 22.52 131.468 22.52C132.081 22.52 132.628 22.5067 133.108 22.48C133.615 22.4533 134.081 22.4267 134.508 22.4ZM140.895 43.28C139.162 43.28 137.895 42.8533 137.095 42C136.322 41.12 135.935 39.96 135.935 38.52C135.935 37.4 136.202 36.48 136.735 35.76C137.295 35.0133 138.002 34.4133 138.855 33.96C139.708 33.48 140.602 33.08 141.535 32.76C142.495 32.4133 143.402 32.08 144.255 31.76C145.108 31.44 145.802 31.08 146.335 30.68C146.895 30.28 147.175 29.7733 147.175 29.16V26.68C147.175 25.56 147.002 24.7067 146.655 24.12C146.335 23.5333 145.895 23.1467 145.335 22.96C144.775 22.7467 144.148 22.64 143.455 22.64C142.788 22.64 142.068 22.7333 141.295 22.92C140.548 23.1067 139.948 23.4933 139.495 24.08C140.002 24.1867 140.442 24.4533 140.815 24.88C141.188 25.3067 141.375 25.8533 141.375 26.52C141.375 27.1867 141.162 27.72 140.735 28.12C140.308 28.4933 139.762 28.68 139.095 28.68C138.322 28.68 137.748 28.44 137.375 27.96C137.028 27.4533 136.855 26.8933 136.855 26.28C136.855 25.5867 137.028 25.0267 137.375 24.6C137.722 24.1733 138.162 23.7733 138.695 23.4C139.308 22.9733 140.095 22.6133 141.055 22.32C142.042 22 143.148 21.84 144.375 21.84C145.468 21.84 146.402 21.9733 147.175 22.24C147.948 22.48 148.588 22.84 149.095 23.32C149.788 23.96 150.242 24.7467 150.455 25.68C150.668 26.5867 150.775 27.68 150.775 28.96V40.08C150.775 40.72 150.868 41.2 151.055 41.52C151.242 41.8133 151.562 41.96 152.015 41.96C152.388 41.96 152.708 41.88 152.975 41.72C153.268 41.56 153.548 41.36 153.815 41.12L154.255 41.8C153.695 42.2267 153.162 42.5867 152.655 42.88C152.148 43.1467 151.468 43.28 150.615 43.28C149.228 43.28 148.308 42.92 147.855 42.2C147.402 41.48 147.175 40.6533 147.175 39.72C146.322 41.1333 145.348 42.08 144.255 42.56C143.188 43.04 142.068 43.28 140.895 43.28ZM142.655 41.68C143.455 41.68 144.242 41.4533 145.015 41C145.788 40.52 146.508 39.7333 147.175 38.64V30.8C146.775 31.3867 146.148 31.8533 145.295 32.2C144.468 32.5467 143.602 32.9333 142.695 33.36C141.815 33.76 141.055 34.32 140.415 35.04C139.775 35.7333 139.455 36.7333 139.455 38.04C139.455 39.2667 139.762 40.1867 140.375 40.8C140.988 41.3867 141.748 41.68 142.655 41.68ZM173.823 22.4V23.2C173.316 23.2533 172.849 23.48 172.423 23.88C171.996 24.28 171.596 24.9867 171.223 26L164.663 43.2H163.983L156.623 25.48C156.116 24.44 155.609 23.8133 155.103 23.6C154.623 23.36 154.223 23.24 153.902 23.24V22.4C154.489 22.48 155.103 22.5467 155.743 22.6C156.383 22.6267 157.076 22.64 157.823 22.64C158.649 22.64 159.516 22.6133 160.423 22.56C161.356 22.5067 162.223 22.4533 163.023 22.4V23.24C162.356 23.24 161.756 23.2933 161.223 23.4C160.716 23.48 160.396 23.76 160.263 24.24C160.129 24.6933 160.289 25.48 160.743 26.6L165.663 38.8L165.423 38.88L169.983 26.96C170.489 25.6267 170.543 24.6933 170.143 24.16C169.743 23.6267 168.836 23.3067 167.423 23.2V22.4C168.116 22.4267 168.689 22.4533 169.143 22.48C169.623 22.5067 170.169 22.52 170.783 22.52C171.396 22.52 171.943 22.5067 172.423 22.48C172.929 22.4533 173.396 22.4267 173.823 22.4ZM164.663 43.2L163.303 46.68C162.796 47.9867 162.223 48.92 161.583 49.48C161.156 49.88 160.649 50.1467 160.063 50.28C159.476 50.44 158.943 50.52 158.463 50.52C157.956 50.52 157.489 50.4267 157.063 50.24C156.663 50.0533 156.343 49.7733 156.103 49.4C155.863 49.0533 155.743 48.6267 155.743 48.12C155.743 47.48 155.929 46.96 156.303 46.56C156.676 46.1867 157.196 46 157.863 46C158.423 46 158.903 46.16 159.303 46.48C159.703 46.8 159.903 47.2667 159.903 47.88C159.903 48.3333 159.796 48.7067 159.583 49C159.369 49.2933 159.116 49.52 158.823 49.68C158.876 49.7067 158.916 49.72 158.943 49.72C158.996 49.72 159.036 49.72 159.062 49.72C159.783 49.72 160.423 49.4667 160.983 48.96C161.543 48.48 162.036 47.6933 162.463 46.6L163.903 42.88L164.663 43.2Z" fill="#1B1B1B"/>
</svg>
