<svg width="133" height="37" viewBox="0 0 133 37" fill="none" xmlns="http://www.w3.org/2000/svg">
<path d="M10.88 0.68V1.48C9.97333 1.50667 9.28 1.61333 8.8 1.8C8.34667 1.96 8.04 2.28 7.88 2.76C7.72 3.21333 7.64 3.93333 7.64 4.92V24.76C7.64 25.72 7.72 26.44 7.88 26.92C8.04 27.4 8.34667 27.72 8.8 27.88C9.28 28.0133 9.97333 28.08 10.88 28.08H13.8C15.48 28.08 16.7467 27.84 17.6 27.36C18.48 26.88 19.1067 26.0933 19.48 25C19.88 23.9067 20.1733 22.44 20.36 20.6H21.28C21.2 21.4267 21.16 22.52 21.16 23.88C21.16 24.3867 21.1733 25.12 21.2 26.08C21.2533 27.0133 21.3333 27.9867 21.44 29C20.08 28.9467 18.5467 28.92 16.84 28.92C15.1333 28.8933 13.6133 28.88 12.28 28.88C11.48 28.88 10.4133 28.88 9.08 28.88C7.77333 28.88 6.37333 28.8933 4.88 28.92C3.38667 28.92 1.98667 28.9467 0.68 29V28.2C1.58667 28.1467 2.26667 28.04 2.72 27.88C3.2 27.72 3.52 27.4 3.68 26.92C3.84 26.44 3.92 25.72 3.92 24.76V4.92C3.92 3.93333 3.84 3.21333 3.68 2.76C3.52 2.28 3.2 1.96 2.72 1.8C2.26667 1.61333 1.58667 1.50667 0.68 1.48V0.68C1.24 0.706666 1.97333 0.733332 2.88 0.759999C3.78667 0.786665 4.76 0.799998 5.8 0.799998C6.73333 0.799998 7.65333 0.786665 8.56 0.759999C9.49333 0.733332 10.2667 0.706666 10.88 0.68ZM33.3956 7.84C35.7423 7.84 37.569 8.56 38.8756 10C40.209 11.4133 40.8756 13.6267 40.8756 16.64H26.7556L26.7156 15.88H37.0356C37.089 14.5733 36.9823 13.3733 36.7156 12.28C36.449 11.16 36.0223 10.2667 35.4356 9.6C34.8756 8.93333 34.1423 8.6 33.2356 8.6C32.009 8.6 30.9156 9.21333 29.9556 10.44C29.0223 11.6667 28.4623 13.6133 28.2756 16.28L28.3956 16.44C28.3423 16.84 28.3023 17.28 28.2756 17.76C28.249 18.24 28.2356 18.72 28.2356 19.2C28.2356 21.0133 28.529 22.5733 29.1156 23.88C29.7023 25.1867 30.4623 26.1867 31.3956 26.88C32.3556 27.5467 33.3423 27.88 34.3556 27.88C35.5556 27.88 36.6623 27.5867 37.6756 27C38.689 26.4133 39.5423 25.3733 40.2356 23.88L41.0356 24.2C40.7423 25.08 40.2623 25.9333 39.5956 26.76C38.929 27.5867 38.089 28.2667 37.0756 28.8C36.0623 29.3067 34.889 29.56 33.5556 29.56C31.6356 29.56 29.9823 29.12 28.5956 28.24C27.2356 27.36 26.1823 26.1467 25.4356 24.6C24.7156 23.0267 24.3556 21.2267 24.3556 19.2C24.3556 16.8533 24.729 14.84 25.4756 13.16C26.2223 11.4533 27.2756 10.1467 28.6356 9.24C29.9956 8.30667 31.5823 7.84 33.3956 7.84ZM53.63 7.84C55.9767 7.84 57.8033 8.56 59.11 10C60.4433 11.4133 61.11 13.6267 61.11 16.64H46.99L46.95 15.88H57.27C57.3233 14.5733 57.2167 13.3733 56.95 12.28C56.6833 11.16 56.2567 10.2667 55.67 9.6C55.11 8.93333 54.3767 8.6 53.47 8.6C52.2433 8.6 51.15 9.21333 50.19 10.44C49.2567 11.6667 48.6967 13.6133 48.51 16.28L48.63 16.44C48.5767 16.84 48.5367 17.28 48.51 17.76C48.4833 18.24 48.47 18.72 48.47 19.2C48.47 21.0133 48.7633 22.5733 49.35 23.88C49.9367 25.1867 50.6967 26.1867 51.63 26.88C52.59 27.5467 53.5767 27.88 54.59 27.88C55.79 27.88 56.8967 27.5867 57.91 27C58.9233 26.4133 59.7767 25.3733 60.47 23.88L61.27 24.2C60.9767 25.08 60.4967 25.9333 59.83 26.76C59.1633 27.5867 58.3233 28.2667 57.31 28.8C56.2967 29.3067 55.1233 29.56 53.79 29.56C51.87 29.56 50.2167 29.12 48.83 28.24C47.47 27.36 46.4167 26.1467 45.67 24.6C44.95 23.0267 44.59 21.2267 44.59 19.2C44.59 16.8533 44.9633 14.84 45.71 13.16C46.4567 11.4533 47.51 10.1467 48.87 9.24C50.23 8.30667 51.8167 7.84 53.63 7.84ZM71.5481 8.4V9.24C70.8815 9.24 70.2948 9.29333 69.7881 9.4C69.2815 9.48 68.9481 9.74667 68.7881 10.2C68.6281 10.6533 68.7481 11.4533 69.1481 12.6L73.3081 24.52L73.0281 24.48L78.9081 8.24L79.7081 8.56L72.3881 29.2C72.2815 29.2 72.1748 29.2 72.0681 29.2C71.9615 29.2 71.8415 29.2 71.7081 29.2L65.1481 11.48C64.7215 10.4133 64.2948 9.77333 63.8681 9.56C63.4681 9.34667 63.1215 9.24 62.8281 9.24V8.4C63.3615 8.48 63.9081 8.54667 64.4681 8.6C65.0548 8.62667 65.6815 8.64 66.3481 8.64C67.1748 8.64 68.0415 8.61333 68.9481 8.56C69.8815 8.50667 70.7481 8.45333 71.5481 8.4ZM93.5081 8.4V9.2C93.0015 9.25333 92.5215 9.48 92.0681 9.88C91.6415 10.2533 91.2548 10.96 90.9081 12L85.1081 29.2C85.0015 29.2 84.8948 29.2 84.7881 29.2C84.6815 29.2 84.5615 29.2 84.4281 29.2L77.9881 12.84L78.9081 8.24C79.0681 8.24 79.2148 8.24 79.3481 8.24C79.5081 8.24 79.6681 8.24 79.8281 8.24L86.0681 24.76L85.7481 25L89.7081 12.96C90.1615 11.6267 90.1881 10.6933 89.7881 10.16C89.4148 9.62667 88.5215 9.30667 87.1081 9.2V8.4C87.5881 8.42667 88.0015 8.45333 88.3481 8.48C88.6948 8.48 89.0281 8.49333 89.3481 8.52C89.6948 8.52 90.0681 8.52 90.4681 8.52C91.0815 8.52 91.6281 8.50667 92.1081 8.48C92.6148 8.45333 93.0815 8.42667 93.5081 8.4ZM99.895 29.28C98.1617 29.28 96.895 28.8533 96.095 28C95.3217 27.12 94.935 25.96 94.935 24.52C94.935 23.4 95.2017 22.48 95.735 21.76C96.295 21.0133 97.0017 20.4133 97.855 19.96C98.7083 19.48 99.6017 19.08 100.535 18.76C101.495 18.4133 102.402 18.08 103.255 17.76C104.108 17.44 104.802 17.08 105.335 16.68C105.895 16.28 106.175 15.7733 106.175 15.16V12.68C106.175 11.56 106.002 10.7067 105.655 10.12C105.335 9.53333 104.895 9.14667 104.335 8.96C103.775 8.74667 103.148 8.64 102.455 8.64C101.788 8.64 101.068 8.73333 100.295 8.92C99.5483 9.10667 98.9483 9.49333 98.495 10.08C99.0017 10.1867 99.4417 10.4533 99.815 10.88C100.188 11.3067 100.375 11.8533 100.375 12.52C100.375 13.1867 100.162 13.72 99.735 14.12C99.3083 14.4933 98.7617 14.68 98.095 14.68C97.3217 14.68 96.7483 14.44 96.375 13.96C96.0283 13.4533 95.855 12.8933 95.855 12.28C95.855 11.5867 96.0283 11.0267 96.375 10.6C96.7217 10.1733 97.1617 9.77333 97.695 9.4C98.3083 8.97333 99.095 8.61333 100.055 8.32C101.042 8 102.148 7.84 103.375 7.84C104.468 7.84 105.402 7.97333 106.175 8.24C106.948 8.48 107.588 8.84 108.095 9.32C108.788 9.96 109.242 10.7467 109.455 11.68C109.668 12.5867 109.775 13.68 109.775 14.96V26.08C109.775 26.72 109.868 27.2 110.055 27.52C110.242 27.8133 110.562 27.96 111.015 27.96C111.388 27.96 111.708 27.88 111.975 27.72C112.268 27.56 112.548 27.36 112.815 27.12L113.255 27.8C112.695 28.2267 112.162 28.5867 111.655 28.88C111.148 29.1467 110.468 29.28 109.615 29.28C108.228 29.28 107.308 28.92 106.855 28.2C106.402 27.48 106.175 26.6533 106.175 25.72C105.322 27.1333 104.348 28.08 103.255 28.56C102.188 29.04 101.068 29.28 99.895 29.28ZM101.655 27.68C102.455 27.68 103.242 27.4533 104.015 27C104.788 26.52 105.508 25.7333 106.175 24.64V16.8C105.775 17.3867 105.148 17.8533 104.295 18.2C103.468 18.5467 102.602 18.9333 101.695 19.36C100.815 19.76 100.055 20.32 99.415 21.04C98.775 21.7333 98.455 22.7333 98.455 24.04C98.455 25.2667 98.7617 26.1867 99.375 26.8C99.9883 27.3867 100.748 27.68 101.655 27.68ZM132.823 8.4V9.2C132.316 9.25333 131.849 9.48 131.423 9.88C130.996 10.28 130.596 10.9867 130.223 12L123.663 29.2H122.983L115.623 11.48C115.116 10.44 114.609 9.81333 114.103 9.6C113.623 9.36 113.223 9.24 112.902 9.24V8.4C113.489 8.48 114.103 8.54667 114.743 8.6C115.383 8.62667 116.076 8.64 116.823 8.64C117.649 8.64 118.516 8.61333 119.423 8.56C120.356 8.50667 121.223 8.45333 122.023 8.4V9.24C121.356 9.24 120.756 9.29333 120.223 9.4C119.716 9.48 119.396 9.76 119.263 10.24C119.129 10.6933 119.289 11.48 119.743 12.6L124.663 24.8L124.423 24.88L128.983 12.96C129.489 11.6267 129.543 10.6933 129.143 10.16C128.743 9.62667 127.836 9.30667 126.423 9.2V8.4C127.116 8.42667 127.689 8.45333 128.143 8.48C128.623 8.50667 129.169 8.52 129.783 8.52C130.396 8.52 130.943 8.50667 131.423 8.48C131.929 8.45333 132.396 8.42667 132.823 8.4ZM123.663 29.2L122.303 32.68C121.796 33.9867 121.223 34.92 120.583 35.48C120.156 35.88 119.649 36.1467 119.063 36.28C118.476 36.44 117.943 36.52 117.463 36.52C116.956 36.52 116.489 36.4267 116.063 36.24C115.663 36.0533 115.343 35.7733 115.103 35.4C114.863 35.0533 114.743 34.6267 114.743 34.12C114.743 33.48 114.929 32.96 115.303 32.56C115.676 32.1867 116.196 32 116.863 32C117.423 32 117.903 32.16 118.303 32.48C118.703 32.8 118.903 33.2667 118.903 33.88C118.903 34.3333 118.796 34.7067 118.583 35C118.369 35.2933 118.116 35.52 117.823 35.68C117.876 35.7067 117.916 35.72 117.943 35.72C117.996 35.72 118.036 35.72 118.062 35.72C118.783 35.72 119.423 35.4667 119.983 34.96C120.543 34.48 121.036 33.6933 121.463 32.6L122.903 28.88L123.663 29.2Z" fill="#DBDBDB"/>
</svg>
