<svg width="219" height="70" viewBox="0 0 219 70" fill="none" xmlns="http://www.w3.org/2000/svg">
<rect width="219" height="70" fill="#DBDBDB"/>
<path d="M59.68 14.68C59.5733 15.6933 59.4933 16.68 59.44 17.64C59.4133 18.5733 59.4 19.2933 59.4 19.8C59.4 20.44 59.4133 21.04 59.44 21.6C59.4667 22.16 59.4933 22.6533 59.52 23.08H58.6C58.4133 21.2133 58.16 19.7467 57.84 18.68C57.52 17.5867 56.96 16.8 56.16 16.32C55.36 15.84 54.12 15.6 52.44 15.6H50.28V38.36C50.28 39.4267 50.3733 40.2267 50.56 40.76C50.7733 41.2933 51.1733 41.6533 51.76 41.84C52.3467 42.0267 53.2 42.1467 54.32 42.2V43C53.6267 42.9467 52.7467 42.92 51.68 42.92C50.6133 42.8933 49.5333 42.88 48.44 42.88C47.24 42.88 46.1067 42.8933 45.04 42.92C44 42.92 43.16 42.9467 42.52 43V42.2C43.64 42.1467 44.4933 42.0267 45.08 41.84C45.6667 41.6533 46.0533 41.2933 46.24 40.76C46.4533 40.2267 46.56 39.4267 46.56 38.36V15.6H44.4C42.7467 15.6 41.5067 15.84 40.68 16.32C39.88 16.8 39.32 17.5867 39 18.68C38.68 19.7467 38.4267 21.2133 38.24 23.08H37.32C37.3733 22.6533 37.4 22.16 37.4 21.6C37.4267 21.04 37.44 20.44 37.44 19.8C37.44 19.2933 37.4133 18.5733 37.36 17.64C37.3333 16.68 37.2667 15.6933 37.16 14.68C38.28 14.7067 39.4933 14.7333 40.8 14.76C42.1333 14.7867 43.4667 14.8 44.8 14.8C46.1333 14.8 47.3467 14.8 48.44 14.8C49.5333 14.8 50.7333 14.8 52.04 14.8C53.3733 14.8 54.7067 14.7867 56.04 14.76C57.3733 14.7333 58.5867 14.7067 59.68 14.68ZM70.005 21.84C72.3517 21.84 74.1783 22.56 75.485 24C76.8183 25.4133 77.485 27.6267 77.485 30.64H63.365L63.325 29.88H73.645C73.6983 28.5733 73.5917 27.3733 73.325 26.28C73.0583 25.16 72.6317 24.2667 72.045 23.6C71.485 22.9333 70.7517 22.6 69.845 22.6C68.6183 22.6 67.525 23.2133 66.565 24.44C65.6317 25.6667 65.0717 27.6133 64.885 30.28L65.005 30.44C64.9517 30.84 64.9117 31.28 64.885 31.76C64.8583 32.24 64.845 32.72 64.845 33.2C64.845 35.0133 65.1383 36.5733 65.725 37.88C66.3117 39.1867 67.0717 40.1867 68.005 40.88C68.965 41.5467 69.9517 41.88 70.965 41.88C72.165 41.88 73.2717 41.5867 74.285 41C75.2983 40.4133 76.1517 39.3733 76.845 37.88L77.645 38.2C77.3517 39.08 76.8717 39.9333 76.205 40.76C75.5383 41.5867 74.6983 42.2667 73.685 42.8C72.6717 43.3067 71.4983 43.56 70.165 43.56C68.245 43.56 66.5917 43.12 65.205 42.24C63.845 41.36 62.7917 40.1467 62.045 38.6C61.325 37.0267 60.965 35.2267 60.965 33.2C60.965 30.8533 61.3383 28.84 62.085 27.16C62.8317 25.4533 63.885 24.1467 65.245 23.24C66.605 22.3067 68.1917 21.84 70.005 21.84ZM85.0794 12.4C85.7727 12.4 86.3727 12.6533 86.8794 13.16C87.386 13.6667 87.6394 14.2667 87.6394 14.96C87.6394 15.6533 87.386 16.2533 86.8794 16.76C86.3727 17.2667 85.7727 17.52 85.0794 17.52C84.386 17.52 83.786 17.2667 83.2794 16.76C82.7727 16.2533 82.5194 15.6533 82.5194 14.96C82.5194 14.2667 82.7727 13.6667 83.2794 13.16C83.786 12.6533 84.386 12.4 85.0794 12.4ZM87.1594 21.96V39.28C87.1594 40.4 87.386 41.16 87.8394 41.56C88.3194 41.96 89.106 42.16 90.1994 42.16V43C89.746 42.9733 89.0527 42.9467 88.1194 42.92C87.2127 42.8667 86.2927 42.84 85.3594 42.84C84.4527 42.84 83.5327 42.8667 82.5994 42.92C81.666 42.9467 80.9727 42.9733 80.5194 43V42.16C81.6127 42.16 82.386 41.96 82.8394 41.56C83.3194 41.16 83.5594 40.4 83.5594 39.28V26.76C83.5594 25.56 83.346 24.68 82.9194 24.12C82.4927 23.5333 81.6927 23.24 80.5194 23.24V22.4C81.3727 22.48 82.1994 22.52 82.9994 22.52C83.7727 22.52 84.506 22.48 85.1994 22.4C85.9194 22.2933 86.5727 22.1467 87.1594 21.96ZM105.678 21.84C106.691 21.84 107.531 21.9733 108.198 22.24C108.891 22.5067 109.465 22.88 109.918 23.36C110.425 23.8933 110.785 24.56 110.998 25.36C111.211 26.16 111.318 27.24 111.318 28.6V39.28C111.318 40.4 111.545 41.16 111.998 41.56C112.478 41.96 113.265 42.16 114.358 42.16V43C113.905 42.9733 113.211 42.9467 112.278 42.92C111.345 42.8667 110.438 42.84 109.558 42.84C108.678 42.84 107.811 42.8667 106.958 42.92C106.131 42.9467 105.505 42.9733 105.078 43V42.16C106.038 42.16 106.718 41.96 107.118 41.56C107.518 41.16 107.718 40.4 107.718 39.28V27.72C107.718 26.8933 107.651 26.1333 107.518 25.44C107.385 24.7467 107.078 24.1867 106.598 23.76C106.145 23.3333 105.438 23.12 104.478 23.12C102.798 23.12 101.438 23.8267 100.398 25.24C99.3848 26.6267 98.8781 28.3467 98.8781 30.4V39.28C98.8781 40.4 99.0781 41.16 99.4781 41.56C99.8781 41.96 100.558 42.16 101.518 42.16V43C101.091 42.9733 100.451 42.9467 99.5981 42.92C98.7715 42.8667 97.9181 42.84 97.0381 42.84C96.1581 42.84 95.2515 42.8667 94.3181 42.92C93.3848 42.9467 92.6915 42.9733 92.2381 43V42.16C93.3315 42.16 94.1048 41.96 94.5581 41.56C95.0381 41.16 95.2781 40.4 95.2781 39.28V26.76C95.2781 25.56 95.0648 24.68 94.6381 24.12C94.2115 23.5333 93.4115 23.24 92.2381 23.24V22.4C93.0915 22.48 93.9181 22.52 94.7181 22.52C95.4915 22.52 96.2248 22.48 96.9181 22.4C97.6381 22.2933 98.2915 22.1467 98.8781 21.96V26.68C99.5715 24.8667 100.531 23.6133 101.758 22.92C103.011 22.2 104.318 21.84 105.678 21.84ZM121.465 43.28C119.732 43.28 118.465 42.8533 117.665 42C116.892 41.12 116.505 39.96 116.505 38.52C116.505 37.4 116.772 36.48 117.305 35.76C117.865 35.0133 118.572 34.4133 119.425 33.96C120.279 33.48 121.172 33.08 122.105 32.76C123.065 32.4133 123.972 32.08 124.825 31.76C125.679 31.44 126.372 31.08 126.905 30.68C127.465 30.28 127.745 29.7733 127.745 29.16V26.68C127.745 25.56 127.572 24.7067 127.225 24.12C126.905 23.5333 126.465 23.1467 125.905 22.96C125.345 22.7467 124.719 22.64 124.025 22.64C123.359 22.64 122.639 22.7333 121.865 22.92C121.119 23.1067 120.519 23.4933 120.065 24.08C120.572 24.1867 121.012 24.4533 121.385 24.88C121.759 25.3067 121.945 25.8533 121.945 26.52C121.945 27.1867 121.732 27.72 121.305 28.12C120.879 28.4933 120.332 28.68 119.665 28.68C118.892 28.68 118.319 28.44 117.945 27.96C117.599 27.4533 117.425 26.8933 117.425 26.28C117.425 25.5867 117.599 25.0267 117.945 24.6C118.292 24.1733 118.732 23.7733 119.265 23.4C119.879 22.9733 120.665 22.6133 121.625 22.32C122.612 22 123.719 21.84 124.945 21.84C126.039 21.84 126.972 21.9733 127.745 22.24C128.519 22.48 129.159 22.84 129.665 23.32C130.359 23.96 130.812 24.7467 131.025 25.68C131.239 26.5867 131.345 27.68 131.345 28.96V40.08C131.345 40.72 131.439 41.2 131.625 41.52C131.812 41.8133 132.132 41.96 132.585 41.96C132.959 41.96 133.279 41.88 133.545 41.72C133.839 41.56 134.119 41.36 134.385 41.12L134.825 41.8C134.265 42.2267 133.732 42.5867 133.225 42.88C132.719 43.1467 132.039 43.28 131.185 43.28C129.799 43.28 128.879 42.92 128.425 42.2C127.972 41.48 127.745 40.6533 127.745 39.72C126.892 41.1333 125.919 42.08 124.825 42.56C123.759 43.04 122.639 43.28 121.465 43.28ZM123.225 41.68C124.025 41.68 124.812 41.4533 125.585 41C126.359 40.52 127.079 39.7333 127.745 38.64V30.8C127.345 31.3867 126.719 31.8533 125.865 32.2C125.039 32.5467 124.172 32.9333 123.265 33.36C122.385 33.76 121.625 34.32 120.985 35.04C120.345 35.7333 120.025 36.7333 120.025 38.04C120.025 39.2667 120.332 40.1867 120.945 40.8C121.559 41.3867 122.319 41.68 123.225 41.68ZM149.467 21.84C150.481 21.84 151.321 21.9733 151.987 22.24C152.681 22.5067 153.254 22.88 153.707 23.36C154.214 23.8933 154.574 24.56 154.787 25.36C155.001 26.16 155.107 27.24 155.107 28.6V39.28C155.107 40.4 155.334 41.16 155.787 41.56C156.267 41.96 157.054 42.16 158.147 42.16V43C157.694 42.9733 157.001 42.9467 156.067 42.92C155.134 42.8667 154.227 42.84 153.347 42.84C152.467 42.84 151.601 42.8667 150.747 42.92C149.921 42.9467 149.294 42.9733 148.867 43V42.16C149.827 42.16 150.507 41.96 150.907 41.56C151.307 41.16 151.507 40.4 151.507 39.28V27.72C151.507 26.8933 151.441 26.1333 151.307 25.44C151.174 24.7467 150.867 24.1867 150.387 23.76C149.934 23.3333 149.227 23.12 148.267 23.12C146.587 23.12 145.227 23.8267 144.187 25.24C143.174 26.6267 142.667 28.3467 142.667 30.4V39.28C142.667 40.4 142.867 41.16 143.267 41.56C143.667 41.96 144.347 42.16 145.307 42.16V43C144.881 42.9733 144.241 42.9467 143.387 42.92C142.561 42.8667 141.707 42.84 140.827 42.84C139.947 42.84 139.041 42.8667 138.107 42.92C137.174 42.9467 136.481 42.9733 136.027 43V42.16C137.121 42.16 137.894 41.96 138.347 41.56C138.827 41.16 139.067 40.4 139.067 39.28V26.76C139.067 25.56 138.854 24.68 138.427 24.12C138.001 23.5333 137.201 23.24 136.027 23.24V22.4C136.881 22.48 137.707 22.52 138.507 22.52C139.281 22.52 140.014 22.48 140.707 22.4C141.427 22.2933 142.081 22.1467 142.667 21.96V26.68C143.361 24.8667 144.321 23.6133 145.547 22.92C146.801 22.2 148.107 21.84 149.467 21.84ZM169.614 21.84C171.961 21.84 173.788 22.56 175.094 24C176.428 25.4133 177.094 27.6267 177.094 30.64H162.974L162.934 29.88H173.254C173.308 28.5733 173.201 27.3733 172.934 26.28C172.668 25.16 172.241 24.2667 171.654 23.6C171.094 22.9333 170.361 22.6 169.454 22.6C168.228 22.6 167.134 23.2133 166.174 24.44C165.241 25.6667 164.681 27.6133 164.494 30.28L164.614 30.44C164.561 30.84 164.521 31.28 164.494 31.76C164.468 32.24 164.454 32.72 164.454 33.2C164.454 35.0133 164.748 36.5733 165.334 37.88C165.921 39.1867 166.681 40.1867 167.614 40.88C168.574 41.5467 169.561 41.88 170.574 41.88C171.774 41.88 172.881 41.5867 173.894 41C174.908 40.4133 175.761 39.3733 176.454 37.88L177.254 38.2C176.961 39.08 176.481 39.9333 175.814 40.76C175.148 41.5867 174.308 42.2667 173.294 42.8C172.281 43.3067 171.108 43.56 169.774 43.56C167.854 43.56 166.201 43.12 164.814 42.24C163.454 41.36 162.401 40.1467 161.654 38.6C160.934 37.0267 160.574 35.2267 160.574 33.2C160.574 30.8533 160.948 28.84 161.694 27.16C162.441 25.4533 163.494 24.1467 164.854 23.24C166.214 22.3067 167.801 21.84 169.614 21.84Z" fill="#1B1B1B"/>
</svg>
