<svg width="141" height="32" viewBox="0 0 141 32" fill="none" xmlns="http://www.w3.org/2000/svg">
<path d="M22.68 2.68C22.5733 3.69333 22.4933 4.68 22.44 5.64C22.4133 6.57333 22.4 7.29333 22.4 7.8C22.4 8.44 22.4133 9.04 22.44 9.6C22.4667 10.16 22.4933 10.6533 22.52 11.08H21.6C21.4133 9.21333 21.16 7.74667 20.84 6.68C20.52 5.58666 19.96 4.8 19.16 4.32C18.36 3.84 17.12 3.6 15.44 3.6H13.28V26.36C13.28 27.4267 13.3733 28.2267 13.56 28.76C13.7733 29.2933 14.1733 29.6533 14.76 29.84C15.3467 30.0267 16.2 30.1467 17.32 30.2V31C16.6267 30.9467 15.7467 30.92 14.68 30.92C13.6133 30.8933 12.5333 30.88 11.44 30.88C10.24 30.88 9.10667 30.8933 8.04 30.92C7 30.92 6.16 30.9467 5.52 31V30.2C6.64 30.1467 7.49333 30.0267 8.08 29.84C8.66667 29.6533 9.05333 29.2933 9.24 28.76C9.45333 28.2267 9.56 27.4267 9.56 26.36V3.6H7.4C5.74667 3.6 4.50667 3.84 3.68 4.32C2.88 4.8 2.32 5.58666 2 6.68C1.68 7.74667 1.42667 9.21333 1.24 11.08H0.32C0.373333 10.6533 0.4 10.16 0.4 9.6C0.426667 9.04 0.44 8.44 0.44 7.8C0.44 7.29333 0.413333 6.57333 0.36 5.64C0.333333 4.68 0.266667 3.69333 0.16 2.68C1.28 2.70667 2.49333 2.73333 3.8 2.76C5.13333 2.78667 6.46667 2.8 7.8 2.8C9.13333 2.8 10.3467 2.8 11.44 2.8C12.5333 2.8 13.7333 2.8 15.04 2.8C16.3733 2.8 17.7067 2.78667 19.04 2.76C20.3733 2.73333 21.5867 2.70667 22.68 2.68ZM33.005 9.84C35.3517 9.84 37.1783 10.56 38.485 12C39.8183 13.4133 40.485 15.6267 40.485 18.64H26.365L26.325 17.88H36.645C36.6983 16.5733 36.5917 15.3733 36.325 14.28C36.0583 13.16 35.6317 12.2667 35.045 11.6C34.485 10.9333 33.7517 10.6 32.845 10.6C31.6183 10.6 30.525 11.2133 29.565 12.44C28.6317 13.6667 28.0717 15.6133 27.885 18.28L28.005 18.44C27.9517 18.84 27.9117 19.28 27.885 19.76C27.8583 20.24 27.845 20.72 27.845 21.2C27.845 23.0133 28.1383 24.5733 28.725 25.88C29.3117 27.1867 30.0717 28.1867 31.005 28.88C31.965 29.5467 32.9517 29.88 33.965 29.88C35.165 29.88 36.2717 29.5867 37.285 29C38.2983 28.4133 39.1517 27.3733 39.845 25.88L40.645 26.2C40.3517 27.08 39.8717 27.9333 39.205 28.76C38.5383 29.5867 37.6983 30.2667 36.685 30.8C35.6717 31.3067 34.4983 31.56 33.165 31.56C31.245 31.56 29.5917 31.12 28.205 30.24C26.845 29.36 25.7917 28.1467 25.045 26.6C24.325 25.0267 23.965 23.2267 23.965 21.2C23.965 18.8533 24.3383 16.84 25.085 15.16C25.8317 13.4533 26.885 12.1467 28.245 11.24C29.605 10.3067 31.1917 9.84 33.005 9.84ZM48.0794 0.399998C48.7727 0.399998 49.3727 0.653331 49.8794 1.16C50.386 1.66666 50.6394 2.26666 50.6394 2.96C50.6394 3.65333 50.386 4.25333 49.8794 4.76C49.3727 5.26667 48.7727 5.52 48.0794 5.52C47.386 5.52 46.786 5.26667 46.2794 4.76C45.7727 4.25333 45.5194 3.65333 45.5194 2.96C45.5194 2.26666 45.7727 1.66666 46.2794 1.16C46.786 0.653331 47.386 0.399998 48.0794 0.399998ZM50.1594 9.96V27.28C50.1594 28.4 50.386 29.16 50.8394 29.56C51.3194 29.96 52.106 30.16 53.1994 30.16V31C52.746 30.9733 52.0527 30.9467 51.1194 30.92C50.2127 30.8667 49.2927 30.84 48.3594 30.84C47.4527 30.84 46.5327 30.8667 45.5994 30.92C44.666 30.9467 43.9727 30.9733 43.5194 31V30.16C44.6127 30.16 45.386 29.96 45.8394 29.56C46.3194 29.16 46.5594 28.4 46.5594 27.28V14.76C46.5594 13.56 46.346 12.68 45.9194 12.12C45.4927 11.5333 44.6927 11.24 43.5194 11.24V10.4C44.3727 10.48 45.1994 10.52 45.9994 10.52C46.7727 10.52 47.506 10.48 48.1994 10.4C48.9194 10.2933 49.5727 10.1467 50.1594 9.96ZM68.6781 9.84C69.6915 9.84 70.5315 9.97333 71.1981 10.24C71.8915 10.5067 72.4648 10.88 72.9181 11.36C73.4248 11.8933 73.7848 12.56 73.9981 13.36C74.2115 14.16 74.3181 15.24 74.3181 16.6V27.28C74.3181 28.4 74.5448 29.16 74.9981 29.56C75.4781 29.96 76.2648 30.16 77.3581 30.16V31C76.9048 30.9733 76.2115 30.9467 75.2781 30.92C74.3448 30.8667 73.4381 30.84 72.5581 30.84C71.6781 30.84 70.8115 30.8667 69.9581 30.92C69.1315 30.9467 68.5048 30.9733 68.0781 31V30.16C69.0381 30.16 69.7181 29.96 70.1181 29.56C70.5181 29.16 70.7181 28.4 70.7181 27.28V15.72C70.7181 14.8933 70.6515 14.1333 70.5181 13.44C70.3848 12.7467 70.0781 12.1867 69.5981 11.76C69.1448 11.3333 68.4381 11.12 67.4781 11.12C65.7981 11.12 64.4381 11.8267 63.3981 13.24C62.3848 14.6267 61.8781 16.3467 61.8781 18.4V27.28C61.8781 28.4 62.0781 29.16 62.4781 29.56C62.8781 29.96 63.5581 30.16 64.5181 30.16V31C64.0915 30.9733 63.4515 30.9467 62.5981 30.92C61.7715 30.8667 60.9181 30.84 60.0381 30.84C59.1581 30.84 58.2515 30.8667 57.3181 30.92C56.3848 30.9467 55.6915 30.9733 55.2381 31V30.16C56.3315 30.16 57.1048 29.96 57.5581 29.56C58.0381 29.16 58.2781 28.4 58.2781 27.28V14.76C58.2781 13.56 58.0648 12.68 57.6381 12.12C57.2115 11.5333 56.4115 11.24 55.2381 11.24V10.4C56.0915 10.48 56.9181 10.52 57.7181 10.52C58.4915 10.52 59.2248 10.48 59.9181 10.4C60.6381 10.2933 61.2915 10.1467 61.8781 9.96V14.68C62.5715 12.8667 63.5315 11.6133 64.7581 10.92C66.0115 10.2 67.3181 9.84 68.6781 9.84ZM84.4653 31.28C82.732 31.28 81.4653 30.8533 80.6653 30C79.892 29.12 79.5053 27.96 79.5053 26.52C79.5053 25.4 79.772 24.48 80.3053 23.76C80.8653 23.0133 81.572 22.4133 82.4253 21.96C83.2786 21.48 84.172 21.08 85.1053 20.76C86.0653 20.4133 86.972 20.08 87.8253 19.76C88.6786 19.44 89.372 19.08 89.9053 18.68C90.4653 18.28 90.7453 17.7733 90.7453 17.16V14.68C90.7453 13.56 90.572 12.7067 90.2253 12.12C89.9053 11.5333 89.4653 11.1467 88.9053 10.96C88.3453 10.7467 87.7186 10.64 87.0253 10.64C86.3586 10.64 85.6386 10.7333 84.8653 10.92C84.1186 11.1067 83.5186 11.4933 83.0653 12.08C83.572 12.1867 84.012 12.4533 84.3853 12.88C84.7586 13.3067 84.9453 13.8533 84.9453 14.52C84.9453 15.1867 84.732 15.72 84.3053 16.12C83.8786 16.4933 83.332 16.68 82.6653 16.68C81.892 16.68 81.3186 16.44 80.9453 15.96C80.5986 15.4533 80.4253 14.8933 80.4253 14.28C80.4253 13.5867 80.5986 13.0267 80.9453 12.6C81.292 12.1733 81.732 11.7733 82.2653 11.4C82.8786 10.9733 83.6653 10.6133 84.6253 10.32C85.612 10 86.7186 9.84 87.9453 9.84C89.0386 9.84 89.972 9.97333 90.7453 10.24C91.5186 10.48 92.1586 10.84 92.6653 11.32C93.3586 11.96 93.812 12.7467 94.0253 13.68C94.2386 14.5867 94.3453 15.68 94.3453 16.96V28.08C94.3453 28.72 94.4386 29.2 94.6253 29.52C94.812 29.8133 95.132 29.96 95.5853 29.96C95.9586 29.96 96.2786 29.88 96.5453 29.72C96.8386 29.56 97.1186 29.36 97.3853 29.12L97.8253 29.8C97.2653 30.2267 96.732 30.5867 96.2253 30.88C95.7186 31.1467 95.0386 31.28 94.1853 31.28C92.7986 31.28 91.8786 30.92 91.4253 30.2C90.972 29.48 90.7453 28.6533 90.7453 27.72C89.892 29.1333 88.9186 30.08 87.8253 30.56C86.7586 31.04 85.6386 31.28 84.4653 31.28ZM86.2253 29.68C87.0253 29.68 87.812 29.4533 88.5853 29C89.3586 28.52 90.0786 27.7333 90.7453 26.64V18.8C90.3453 19.3867 89.7186 19.8533 88.8653 20.2C88.0386 20.5467 87.172 20.9333 86.2653 21.36C85.3853 21.76 84.6253 22.32 83.9853 23.04C83.3453 23.7333 83.0253 24.7333 83.0253 26.04C83.0253 27.2667 83.332 28.1867 83.9453 28.8C84.5586 29.3867 85.3186 29.68 86.2253 29.68ZM112.467 9.84C113.481 9.84 114.321 9.97333 114.987 10.24C115.681 10.5067 116.254 10.88 116.707 11.36C117.214 11.8933 117.574 12.56 117.787 13.36C118.001 14.16 118.107 15.24 118.107 16.6V27.28C118.107 28.4 118.334 29.16 118.787 29.56C119.267 29.96 120.054 30.16 121.147 30.16V31C120.694 30.9733 120.001 30.9467 119.067 30.92C118.134 30.8667 117.227 30.84 116.347 30.84C115.467 30.84 114.601 30.8667 113.747 30.92C112.921 30.9467 112.294 30.9733 111.867 31V30.16C112.827 30.16 113.507 29.96 113.907 29.56C114.307 29.16 114.507 28.4 114.507 27.28V15.72C114.507 14.8933 114.441 14.1333 114.307 13.44C114.174 12.7467 113.867 12.1867 113.387 11.76C112.934 11.3333 112.227 11.12 111.267 11.12C109.587 11.12 108.227 11.8267 107.187 13.24C106.174 14.6267 105.667 16.3467 105.667 18.4V27.28C105.667 28.4 105.867 29.16 106.267 29.56C106.667 29.96 107.347 30.16 108.307 30.16V31C107.881 30.9733 107.241 30.9467 106.387 30.92C105.561 30.8667 104.707 30.84 103.827 30.84C102.947 30.84 102.041 30.8667 101.107 30.92C100.174 30.9467 99.4805 30.9733 99.0272 31V30.16C100.121 30.16 100.894 29.96 101.347 29.56C101.827 29.16 102.067 28.4 102.067 27.28V14.76C102.067 13.56 101.854 12.68 101.427 12.12C101.001 11.5333 100.201 11.24 99.0272 11.24V10.4C99.8805 10.48 100.707 10.52 101.507 10.52C102.281 10.52 103.014 10.48 103.707 10.4C104.427 10.2933 105.081 10.1467 105.667 9.96V14.68C106.361 12.8667 107.321 11.6133 108.547 10.92C109.801 10.2 111.107 9.84 112.467 9.84ZM132.614 9.84C134.961 9.84 136.788 10.56 138.094 12C139.428 13.4133 140.094 15.6267 140.094 18.64H125.974L125.934 17.88H136.254C136.308 16.5733 136.201 15.3733 135.934 14.28C135.668 13.16 135.241 12.2667 134.654 11.6C134.094 10.9333 133.361 10.6 132.454 10.6C131.228 10.6 130.134 11.2133 129.174 12.44C128.241 13.6667 127.681 15.6133 127.494 18.28L127.614 18.44C127.561 18.84 127.521 19.28 127.494 19.76C127.468 20.24 127.454 20.72 127.454 21.2C127.454 23.0133 127.748 24.5733 128.334 25.88C128.921 27.1867 129.681 28.1867 130.614 28.88C131.574 29.5467 132.561 29.88 133.574 29.88C134.774 29.88 135.881 29.5867 136.894 29C137.908 28.4133 138.761 27.3733 139.454 25.88L140.254 26.2C139.961 27.08 139.481 27.9333 138.814 28.76C138.148 29.5867 137.308 30.2667 136.294 30.8C135.281 31.3067 134.108 31.56 132.774 31.56C130.854 31.56 129.201 31.12 127.814 30.24C126.454 29.36 125.401 28.1467 124.654 26.6C123.934 25.0267 123.574 23.2267 123.574 21.2C123.574 18.8533 123.948 16.84 124.694 15.16C125.441 13.4533 126.494 12.1467 127.854 11.24C129.214 10.3067 130.801 9.84 132.614 9.84Z" fill="#DBDBDB"/>
</svg>
